<svg xmlns="http://www.w3.org/2000/svg"  viewBox="0 0 16 16" width="16px" height="16px"><path fill="#e8d47b" d="M3.5,10.5c-0.482,0-1-0.881-1-1.5c0-0.234,0-0.5,1-0.5c0.552,0,1,0.448,1,1S4.052,10.5,3.5,10.5z"/><path fill="#ba9b48" d="M3.5,9C3.776,9,4,9.224,4,9.5S3.776,10,3.524,10.003C3.352,9.949,3.043,9.475,3.007,9.04 C3.091,9.021,3.242,9,3.5,9 M3.5,8C2.672,8,2,8.171,2,9s0.672,2,1.5,2S5,10.328,5,9.5S4.328,8,3.5,8L3.5,8z"/><path fill="#e8d47b" d="M12.5,10.5c-0.552,0-1-0.448-1-1s0.448-1,1-1c1,0,1,0.266,1,0.5C13.5,9.619,12.982,10.5,12.5,10.5z"/><path fill="#ba9b48" d="M12.5,9c0.264,0,0.416,0.022,0.499,0.041C12.978,9.443,12.654,9.947,12.5,10 C12.224,10,12,9.776,12,9.5S12.224,9,12.5,9 M12.5,8C11.672,8,11,8.671,11,9.5s0.672,1.5,1.5,1.5S14,9.828,14,9S13.328,8,12.5,8 L12.5,8z"/><path fill="#ffeea3" d="M8,15.5c-0.459,0-0.888-0.213-1.177-0.584L6.73,14.797l-0.144-0.048 C4.74,14.134,3.5,12.427,3.5,10.5V4.855C3.5,3.905,3.977,2.5,5,2.5l5.575,0.471c1.08,0.002,1.925,0.847,1.925,1.885V10.5 c0,1.927-1.24,3.634-3.087,4.249L9.27,14.797l-0.093,0.119C8.888,15.287,8.459,15.5,8,15.5z"/><path fill="#ba9b48" d="M4.969,3.001l5.564,0.468l0.042,0.004h0.042C11.38,3.472,12,4.093,12,4.855V10.5 c0,1.711-1.103,3.228-2.744,3.775L8.969,14.37l-0.186,0.238C8.589,14.857,8.304,15,8,15s-0.589-0.143-0.783-0.392L7.031,14.37 l-0.287-0.095C5.103,13.728,4,12.211,4,10.5V4.855C4,3.993,4.396,3.035,4.969,3.001 M5,2C3.684,2,3,3.539,3,4.855V10.5 c0,2.209,1.442,4.062,3.428,4.723C6.794,15.693,7.359,16,8,16s1.206-0.307,1.572-0.777C11.558,14.562,13,12.709,13,10.5V4.855 c0-1.316-1.067-2.383-2.383-2.383L5,2L5,2z"/><path fill="#36404d" d="M6 9A0.75 0.75 0 1 0 6 10.5A0.75 0.75 0 1 0 6 9Z"/><path fill="#ba9b48" d="M6 9L5 9 5 5.25 7 6.25 7 3 8 3 8 7.955 6 6.955z"/><path fill="#b08159" d="M12.5,9.5V8c0-1.519-0.981-2.5-2.5-2.5c-2.116,0-3.597-1.797-3.611-1.814L6.156,3.398L5.813,3.536 C5.719,3.574,3.5,4.496,3.5,7v2.5H3.368C3.115,8.658,2.5,6.463,2.5,5c0-2.421,1.571-3.067,2.5-3.067h0.251L5.4,1.731 C5.437,1.684,6.364,0.5,8.252,0.5c3.004,0,5.248,2.375,5.248,4.499c0,1.885-0.592,3.772-0.849,4.501H12.5z"/><path fill="#a16a4a" d="M8.252,1C10.969,1,13,3.111,13,4.999c0,0.642-0.073,1.287-0.177,1.883C12.426,5.723,11.389,5,10,5 C8.144,5,6.788,3.383,6.777,3.37L6.312,2.797L5.627,3.072C5.532,3.111,3.54,3.937,3.09,6.102C3.034,5.711,3,5.335,3,5 c0-2.496,1.795-2.568,2-2.568l0.494-0.01l0.3-0.382C5.827,1.998,6.631,1,8.252,1 M8.252,0C6.069,0,5,1.432,5,1.432 C3.86,1.432,2,2.246,2,5c0,1.935,1,5,1,5h1c0,0,0-2.357,0-3c0-2.195,2-3,2-3s1.621,2,4,2c1.279,0,2,0.78,2,2c0,0.584,0,2,0,2h1 c0,0,1-2.484,1-5.001C14,2.581,11.529,0,8.252,0L8.252,0z"/><g><path fill="#788b9c" d="M6,9c0.551,0,1,0.449,1,1s-0.449,1-1,1s-1-0.449-1-1S5.449,9,6,9 M6,8c-1.105,0-2,0.895-2,2 s0.895,2,2,2s2-0.895,2-2S7.105,8,6,8L6,8z"/></g><path fill="#36404d" d="M10 9A0.75 0.75 0 1 0 10 10.5A0.75 0.75 0 1 0 10 9Z"/><g><path fill="#788b9c" d="M10,9c0.551,0,1,0.449,1,1s-0.449,1-1,1s-1-0.449-1-1S9.449,9,10,9 M10,8c-1.105,0-2,0.895-2,2 s0.895,2,2,2s2-0.895,2-2S11.105,8,10,8L10,8z"/></g></svg>